<svg aria-hidden="true" style="position: absolute; width: 0; height: 0; overflow: hidden;" version="1.1" xmlns="http://www.w3.org/2000/svg" xmlns:xlink="http://www.w3.org/1999/xlink">
<defs>
<symbol id="burger-button" viewBox="0 0 43 32">
<path d="M3.369 0h36.297c1.861 0 3.369 1.508 3.369 3.369v-0.001c0 1.861-1.508 3.369-3.369 3.369h-36.297c-1.861 0-3.369-1.508-3.369-3.369v0.001c0-1.861 1.508-3.369 3.369-3.369z"></path>
<path d="M3.369 25.263h36.297c1.861 0 3.369 1.508 3.369 3.369v-0.001c0 1.861-1.508 3.369-3.369 3.369h-36.297c-1.861 0-3.369-1.508-3.369-3.369v0.001c0-1.861 1.508-3.369 3.369-3.369z"></path>
<path d="M3.369 13.473h36.297c1.861 0 3.369 1.508 3.369 3.369v-0.001c0 1.861-1.508 3.369-3.369 3.369h-36.297c-1.861 0-3.369-1.508-3.369-3.369v0.001c0-1.861 1.508-3.369 3.369-3.369z"></path>
</symbol>
<symbol id="icon-instagram" viewBox="0 0 32 32">
<path fill="#eeaa21" style="fill: var(--color1, #eeaa21)" d="M10.291 1.925c-4.551 0-8.255 3.704-8.255 8.255v11.431c0 4.552 3.704 8.255 8.255 8.255h11.43c4.551 0 8.255-3.703 8.255-8.255v-11.431c0-4.551-3.704-8.255-8.255-8.255h-11.43zM10.291 3.195h11.43c3.865 0 6.985 3.12 6.985 6.985v11.431c0 3.865-3.12 6.985-6.985 6.985h-11.43c-3.865 0-6.985-3.12-6.985-6.985v-11.431c0-3.865 3.12-6.985 6.985-6.985zM23.627 7.005c-0.701 0-1.27 0.569-1.27 1.27s0.569 1.27 1.27 1.27v0c0.701 0 1.27-0.569 1.27-1.27s-0.569-1.27-1.27-1.27v0zM16.006 8.91c-3.85 0-6.985 3.135-6.985 6.985s3.135 6.985 6.985 6.985c3.851 0 6.985-3.135 6.985-6.985s-3.135-6.985-6.985-6.985zM16.006 10.18c0.003 0 0.006 0 0.010 0 3.151 0 5.706 2.554 5.706 5.706 0 0.003 0 0.007 0 0.010v-0.001c0 0.003 0 0.006 0 0.010 0 3.151-2.554 5.706-5.706 5.706-0.003 0-0.007 0-0.010 0h0.001c-0.003 0-0.006 0-0.010 0-3.151 0-5.706-2.554-5.706-5.706 0-0.003 0-0.007 0-0.010v0.001c0-0.003 0-0.006 0-0.010 0-3.151 2.554-5.706 5.706-5.706 0.003 0 0.007 0 0.010 0h-0.001z"></path>
</symbol>
<symbol id="cross" viewBox="0 0 32 32">
<path d="M26.667 7.303l-1.97-1.97-7.808 7.808-7.808-7.808-1.97 1.97 7.808 7.808-7.808 7.808 1.97 1.97 7.808-7.808 7.808 7.808 1.97-1.97-7.808-7.808 7.808-7.808z"></path>
</symbol>
</defs>
</svg>
